#!OML:ASF H:\Terrain\Patient Classification 1\Takeo\Monday\TakeoMonday.ASF
:FULLY-SPECIFIED
:DEGREES
1537
root 8.82335 16.5567 -1.74239 -2.13795 22.965 -1.98286
lowerback 25.0603 -1.67475 7.00131
upperback 11.0656 -0.370111 -0.16811
thorax -1.67688 0.153787 -4.08446
lowerneck -12.2748 -8.00268 -3.64789
upperneck -9.33224 -10.0941 3.19659
head -0.566774 -4.93568 1.25148
rclavicle -3.47873e-014 1.49089e-014
rhumerus 44.5556 -0.522231 -43.9478
rradius 82.61
rwrist 10.5426
rhand -39.8869 49.2784
rfingers 7.12502
rthumb -12.8587 19.6945
lclavicle -3.47873e-014 1.49089e-014
lhumerus -24.5839 -0.561747 87.7327
lradius 47.1192
lwrist 28.7855
lhand -28.4992 11.6655
lfingers 7.12502
lthumb -1.86808 41.6371
rfemur -31.5534 -6.30894 17.8174
rtibia 48.9725
rfoot -14.6214 -17.971
rtoes 4.47107
lfemur -25.8471 2.90936 -21.4946
ltibia 54.3539
lfoot -23.2263 13.3354
ltoes -6.03398
1538
root 8.81579 16.6159 -1.71439 -2.7204 23.0425 -2.58148
lowerback 24.752 -1.74436 7.30866
upperback 10.8594 -0.416204 -0.17069
thorax -1.75898 0.129262 -4.25067
lowerneck -11.9893 -8.0634 -3.50501
upperneck -9.72799 -10.1963 3.21345
head -0.740675 -4.99063 1.25291
rclavicle 4.96962e-015 -1.11319e-014
rhumerus 45.3312 -1.08857 -43.9519
rradius 81.8022
rwrist 10.1718
rhand -40.2188 48.3037
rfingers 7.12502
rthumb -13.1787 18.7402
lclavicle 4.96962e-015 -1.11319e-014
lhumerus -25.0156 -0.0658798 87.5509
lradius 46.8384
lwrist 28.3637
lhand -28.3878 11.7451
lfingers 7.12502
lthumb -1.76046 41.7175
rfemur -30.4547 -6.09097 18.4049
rtibia 48.0057
rfoot -14.5816 -18.1265
rtoes 5.59729
lfemur -24.9161 2.9037 -20.7581
ltibia 53.4399
lfoot -22.9926 13.2205
ltoes -5.54773
1539
root 8.80871 16.67 -1.68097 -3.16468 23.1452 -2.89435
lowerback 24.0354 -1.76006 7.34652
upperback 10.9428 -0.494479 -0.190667
thorax -1.32992 0.108921 -4.27217
lowerneck -11.962 -8.18339 -3.79581
upperneck -10.2733 -10.297 3.63209
head -0.877032 -5.02885 1.44244
rclavicle 1.13307e-014 6.85807e-015
rhumerus 46.3393 -1.97762 -43.9138
rradius 81.0473
rwrist 9.60379
rhand -39.9634 48.3788
rfingers 7.12502
rthumb -12.9325 18.7995
lclavicle 1.13307e-014 6.85807e-015
lhumerus -24.9829 0.38837 87.4815
lradius 46.5277
lwrist 28.0195
lhand -28.5285 12.327
lfingers 7.12502
lthumb -1.89633 42.2983
rfemur -29.4544 -6.00091 18.7399
rtibia 47.0927
rfoot -14.1497 -18.4107
rtoes 5.08687
lfemur -23.9569 2.86835 -20.3164
ltibia 52.5607
lfoot -22.8663 13.1485
ltoes -5.69264
1540
root 8.80184 16.7071 -1.64228 -3.38169 23.2127 -2.72859
lowerback 23.6811 -1.63569 6.71508
upperback 10.7233 -0.493903 -0.146456
thorax -1.41101 0.0744115 -3.86441
lowerneck -11.7909 -8.20246 -4.26579
upperneck -10.6357 -10.2546 3.94866
head -0.979414 -4.99006 1.63725
rclavicle -4.75592e-014 2.65378e-014
rhumerus 47.1061 -2.51502 -43.5721
rradius 80.2614
rwrist 9.102
rhand -39.616 49.0219
rfingers 7.12502
rthumb -12.5976 19.4217
lclavicle -4.75592e-014 2.65378e-014
lhumerus -25.2087 0.964616 87.481
lradius 45.7055
lwrist 26.867
lhand -27.5092 12.7329
lfingers 7.12502
lthumb -0.91191 42.7107
rfemur -28.5884 -6.03005 18.6283
rtibia 46.2503
rfoot -13.5384 -18.6331
rtoes 3.31573
lfemur -23.0971 2.83658 -20.374
ltibia 51.729
lfoot -22.6443 13.2025
ltoes -6.12105
1541
root 8.79973 16.745 -1.60643 -3.63821 23.3639 -2.90357
lowerback 23.0636 -1.67073 6.64465
upperback 10.5765 -0.605811 -0.219835
thorax -1.28618 0.0155837 -3.87691
lowerneck -11.841 -8.17698 -4.20064
upperneck -10.8299 -10.2148 4.00966
head -1.03528 -4.9693 1.65152
rclavicle -3.86139e-014 -2.18663e-015
rhumerus 47.8743 -3.08837 -43.5089
rradius 79.4559
rwrist 8.8236
rhand -39.7914 48.7548
rfingers 7.12502
rthumb -12.7667 19.1651
lclavicle -3.86139e-014 -2.18663e-015
lhumerus -25.2249 2.1751 86.8142
lradius 44.3061
lwrist 23.5433
lhand -23.827 11.5714
lfingers 7.12502
lthumb 2.64447 41.5348
rfemur -27.8018 -6.13533 18.8209
rtibia 45.4874
rfoot -13.4238 -18.6908
rtoes 2.82141
lfemur -22.4422 2.71484 -20.1364
ltibia 50.9196
lfoot -22.2625 13.426
ltoes -6.68326
1542
root 8.79933 16.7879 -1.57486 -3.90801 23.5204 -3.12646
lowerback 22.8716 -1.71814 6.60619
upperback 10.1301 -0.685727 -0.221879
thorax -1.69348 -0.0547483 -3.83867
lowerneck -11.9511 -8.19732 -4.14942
upperneck -10.5317 -10.2499 3.84364
head -0.93295 -4.98643 1.57547
rclavicle 1.14627e-014 -3.4719e-014
rhumerus 48.3737 -3.39817 -43.2024
rradius 78.6609
rwrist 8.31768
rhand -39.8668 48.1327
rfingers 7.12502
rthumb -12.8393 18.5476
lclavicle 1.14627e-014 -3.4719e-014
lhumerus -26.0123 1.63544 87.1624
lradius 44.7419
lwrist 27.0421
lhand -27.252 12.8031
lfingers 7.12502
lthumb -0.663512 42.7818
rfemur -27.0044 -6.1515 19.0277
rtibia 44.7413
rfoot -13.574 -18.6839
rtoes 3.93948
lfemur -21.7813 2.55764 -19.8659
ltibia 50.1613
lfoot -21.8795 13.5895
ltoes -7.20798
1543
root 8.79419 16.8304 -1.53767 -4.07513 23.566 -2.98056
lowerback 22.4294 -1.59058 6.27562
upperback 9.97941 -0.62732 -0.34836
thorax -1.63821 -0.0372435 -3.80142
lowerneck -12.2282 -8.30036 -4.20671
upperneck -10.5376 -10.3543 3.99807
head -0.875917 -5.03228 1.61682
rclavicle -1.31446e-014 1.9133e-014
rhumerus 48.9621 -4.23478 -42.8461
rradius 77.829
rwrist 7.67304
rhand -39.6669 47.9948
rfingers 7.12502
rthumb -12.6467 18.3977
lclavicle -1.31446e-014 1.9133e-014
lhumerus -26.086 1.39106 87.3131
lradius 44.4601
lwrist 28.5736
lhand -29.0204 13.1197
lfingers 7.12502
lthumb -2.3714 43.0863
rfemur -26.1788 -6.10717 18.9212
rtibia 43.963
rfoot -13.2806 -18.7422
rtoes 3.39136
lfemur -21.0129 2.52897 -19.9379
ltibia 49.4148
lfoot -21.4863 13.7949
ltoes -8.63778
1544
root 8.79054 16.8673 -1.4945 -4.40761 23.5069 -3.12905
lowerback 21.8392 -1.48065 6.24841
upperback 9.95904 -0.542948 -0.50457
thorax -1.35964 0.013669 -3.97384
lowerneck -12.2607 -8.41261 -4.20791
upperneck -10.9299 -10.4763 4.30475
head -0.974616 -5.09025 1.71904
rclavicle 6.87298e-014 -2.45499e-014
rhumerus 49.5368 -5.20404 -42.6858
rradius 77.0172
rwrist 7.17013
rhand -39.7199 48.1845
rfingers 7.12502
rthumb -12.6977 18.5906
lclavicle 6.87298e-014 -2.45499e-014
lhumerus -25.9623 1.69147 87.081
lradius 43.7412
lwrist 28.136
lhand -29.432 13.1373
lfingers 7.12502
lthumb -2.76896 43.0991
rfemur -25.2965 -6.0086 19.121
rtibia 43.1396
rfoot -13.1141 -18.8311
rtoes 2.7658
lfemur -20.1956 2.65517 -19.6693
ltibia 48.6712
lfoot -21.2607 13.7495
ltoes -9.94704
1545
root 8.78896 16.9018 -1.45495 -4.72229 23.4923 -3.17422
lowerback 21.5155 -1.45265 6.12219
upperback 9.74106 -0.562062 -0.699418
thorax -1.44104 -0.00621299 -4.10761
lowerneck -11.6578 -8.60321 -4.65487
upperneck -11.4245 -10.6606 5.11983
head -1.14979 -5.17476 2.08553
rclavicle -6.4605e-015 -7.55382e-015
rhumerus 50.0024 -5.78607 -42.5344
rradius 76.2571
rwrist 6.62768
rhand -39.9451 48.1264
rfingers 7.12502
rthumb -12.9149 18.5461
lclavicle -6.4605e-015 -7.55382e-015
lhumerus -26.2267 2.48603 86.6239
lradius 43.1863
lwrist 27.3667
lhand -29.1582 12.9333
lfingers 7.12502
lthumb -2.50447 42.8984
rfemur -24.3764 -5.92303 19.1799
rtibia 42.3087
rfoot -13.2045 -18.8656
rtoes 3.39078
lfemur -19.3352 2.70078 -19.4955
ltibia 47.94
lfoot -21.4599 13.2952
ltoes -9.23124
